<svg width="37" height="37" viewBox="0 0 37 37" fill="none" xmlns="http://www.w3.org/2000/svg">
<path d="M32.2083 0.875H4.79167C2.62855 0.875 0.875 2.62855 0.875 4.79167V32.2083C0.875 34.3714 2.62855 36.125 4.79167 36.125H32.2083C34.3714 36.125 36.125 34.3714 36.125 32.2083V4.79167C36.125 2.62855 34.3714 0.875 32.2083 0.875ZM11.6458 29.2708C11.6458 29.8116 11.2074 30.25 10.6667 30.25H7.72917C7.18839 30.25 6.75 29.8116 6.75 29.2708V15.5625C6.75 15.0217 7.18839 14.5833 7.72917 14.5833H10.6667C11.2074 14.5833 11.6458 15.0217 11.6458 15.5625V29.2708ZM9.19792 12.625C7.57558 12.625 6.26042 11.3098 6.26042 9.6875C6.26042 8.06516 7.57558 6.75 9.19792 6.75C10.8203 6.75 12.1354 8.06516 12.1354 9.6875C12.1354 11.3098 10.8203 12.625 9.19792 12.625ZM30.25 29.2708C30.25 29.8116 29.8116 30.25 29.2708 30.25H26.3333C25.7926 30.25 25.3542 29.8116 25.3542 29.2708V21.9271C25.3542 20.3047 24.039 18.9896 22.4167 18.9896C20.7943 18.9896 19.4792 20.3047 19.4792 21.9271V29.2708C19.4792 29.8116 19.0408 30.25 18.5 30.25H15.5625C15.0217 30.25 14.5833 29.8116 14.5833 29.2708V15.5625C14.5833 15.0217 15.0217 14.5833 15.5625 14.5833H18.5C19.0408 14.5833 19.4792 15.0217 19.4792 15.5625V16.7375C20.6703 14.9249 22.7633 13.916 24.9233 14.1133C28.0128 14.4943 30.3136 17.1503 30.25 20.2625V29.2708Z" fill="#CE9461"/>
</svg>
