<?xml version="1.0" encoding="UTF-8"?>
<svg id="Camada_2" data-name="Camada 2" xmlns="http://www.w3.org/2000/svg" viewBox="0 0 304.22 82.5">
  <defs>
    <style>
      .cls-1 {
        fill: #c49a6c;
      }

      .cls-2 {
        fill: #fff;
      }

      .cls-3 {
        fill: #ce9461;
      }
    </style>
  </defs>
  <g id="Coluna_2" data-name="Coluna 2">
    <g>
      <g>
        <polygon class="cls-3" points="82.5 82.5 55 55 82.5 55 82.5 82.5"/>
        <polygon class="cls-3" points="27.5 55 55 82.5 27.5 82.5 27.5 55"/>
        <polygon class="cls-3" points="0 55 27.5 82.5 0 82.5 0 55"/>
        <polygon class="cls-3" points="82.5 55 55 27.5 82.5 27.5 82.5 55"/>
        <polygon class="cls-3" points="27.5 27.5 55 55 27.5 55 27.5 27.5"/>
        <polygon class="cls-3" points="0 27.5 27.5 55 0 55 0 27.5"/>
        <polygon class="cls-3" points="82.5 27.5 55 0 82.5 0 82.5 27.5"/>
        <polygon class="cls-3" points="55 27.5 27.5 0 55 0 55 27.5"/>
        <polygon class="cls-3" points="27.5 27.5 0 0 27.5 0 27.5 27.5"/>
      </g>
      <g>
        <path class="cls-2" d="M110.23,20.32V.02h7.6c1.72,0,3.2.28,4.44.83,1.24.55,2.19,1.34,2.86,2.38.67,1.03,1,2.29,1,3.76s-.33,2.66-1,3.7c-.67,1.03-1.62,1.83-2.86,2.39-1.24.56-2.72.84-4.44.84h-6.41l.96-1.01v7.42h-2.15ZM112.38,13.07l-.96-1.04h6.35c2.03,0,3.57-.44,4.63-1.32s1.58-2.12,1.58-3.73-.53-2.88-1.58-3.77-2.6-1.33-4.63-1.33h-6.35l.96-1.02v12.21Z"/>
        <path class="cls-2" d="M133.2,18.46h12.21v1.86h-14.36V.02h13.92v1.86h-11.77v16.59ZM132.97,9.09h10.73v1.83h-10.73v-1.83Z"/>
        <path class="cls-2" d="M150.46,20.32V.02h7.6c1.72,0,3.2.28,4.44.83,1.24.55,2.19,1.34,2.86,2.38.67,1.03,1,2.29,1,3.76s-.33,2.66-1,3.7c-.67,1.03-1.62,1.83-2.86,2.38-1.24.55-2.72.83-4.44.83h-6.41l.96-.99v7.42h-2.15ZM152.6,13.07l-.96-1.02h6.35c2.03,0,3.57-.44,4.63-1.33,1.05-.89,1.58-2.14,1.58-3.74s-.53-2.88-1.58-3.77-2.6-1.33-4.63-1.33h-6.35l.96-1.02v12.21ZM164.32,20.32l-5.22-7.37h2.32l5.25,7.37h-2.35Z"/>
        <path class="cls-2" d="M173.57,18.46h12.21v1.86h-14.36V.02h13.92v1.86h-11.77v16.59ZM173.34,9.09h10.73v1.83h-10.73v-1.83Z"/>
        <path class="cls-2" d="M194.77,20.32V1.87h-7.13V.02h16.41v1.86h-7.13v18.44h-2.15Z"/>
        <path class="cls-2" d="M110.23,51.32v-20.3h8.76c2.26,0,4.02.45,5.26,1.36,1.25.91,1.87,2.19,1.87,3.86,0,1.1-.26,2.03-.77,2.78-.51.75-1.21,1.32-2.09,1.71-.88.39-1.84.58-2.89.58l.49-.7c1.29,0,2.41.2,3.35.59.94.4,1.67.99,2.19,1.77.52.78.78,1.75.78,2.91,0,1.72-.63,3.05-1.9,4-1.27.95-3.17,1.42-5.73,1.42h-9.34ZM112.38,49.55h7.16c1.78,0,3.14-.3,4.09-.91s1.42-1.58,1.42-2.91-.47-2.28-1.42-2.89-2.31-.91-4.09-.91h-7.4v-1.77h6.7c1.62,0,2.89-.31,3.78-.93.9-.62,1.35-1.54,1.35-2.76s-.45-2.16-1.35-2.77c-.9-.61-2.16-.91-3.78-.91h-6.47v16.76Z"/>
        <path class="cls-2" d="M128.85,51.32l9.28-20.3h2.12l9.28,20.3h-2.26l-8.53-19.05h.87l-8.53,19.05h-2.23ZM132.51,45.89l.64-1.74h11.8l.64,1.74h-13.08Z"/>
        <path class="cls-2" d="M152.89,51.32v-20.3h7.6c1.72,0,3.2.28,4.44.83,1.24.55,2.19,1.34,2.86,2.38.67,1.03,1,2.29,1,3.76s-.33,2.66-1,3.7c-.67,1.03-1.62,1.83-2.86,2.38-1.24.55-2.72.83-4.44.83h-6.41l.96-.99v7.42h-2.15ZM155.04,44.07l-.96-1.02h6.35c2.03,0,3.57-.44,4.63-1.33,1.05-.89,1.58-2.14,1.58-3.74s-.53-2.88-1.58-3.77-2.6-1.33-4.63-1.33h-6.35l.96-1.02v12.21ZM166.76,51.32l-5.22-7.37h2.32l5.25,7.37h-2.35Z"/>
        <path class="cls-2" d="M173.86,51.32v-20.3h7.6c1.72,0,3.2.28,4.44.83,1.24.55,2.19,1.34,2.86,2.38.67,1.03,1,2.29,1,3.76s-.33,2.66-1,3.7c-.67,1.03-1.62,1.83-2.86,2.38-1.24.55-2.72.83-4.44.83h-6.41l.96-.99v7.42h-2.15ZM176.01,44.07l-.96-1.02h6.35c2.03,0,3.57-.44,4.63-1.33,1.05-.89,1.58-2.14,1.58-3.74s-.53-2.88-1.58-3.77-2.6-1.33-4.63-1.33h-6.35l.96-1.02v12.21ZM187.72,51.32l-5.22-7.37h2.32l5.25,7.37h-2.35Z"/>
        <path class="cls-2" d="M203.7,51.49c-1.53,0-2.94-.26-4.25-.77-1.3-.51-2.44-1.24-3.39-2.17-.96-.94-1.7-2.03-2.23-3.28-.53-1.25-.8-2.61-.8-4.1s.27-2.86.8-4.1c.53-1.25,1.28-2.34,2.23-3.28s2.08-1.66,3.38-2.18c1.29-.51,2.72-.77,4.26-.77s2.94.26,4.23.77c1.29.51,2.42,1.23,3.38,2.16.96.93,1.7,2.02,2.23,3.28.53,1.26.8,2.63.8,4.12s-.27,2.86-.8,4.12c-.53,1.26-1.28,2.35-2.23,3.28-.96.93-2.08,1.65-3.38,2.16-1.3.51-2.71.77-4.23.77ZM203.7,49.58c1.22,0,2.34-.21,3.38-.62s1.93-1.01,2.7-1.77c.76-.76,1.36-1.65,1.78-2.67.42-1.02.64-2.13.64-3.35s-.21-2.33-.64-3.35c-.43-1.02-1.02-1.9-1.78-2.67-.76-.76-1.66-1.35-2.7-1.77-1.03-.42-2.16-.62-3.38-.62s-2.35.21-3.39.62c-1.04.42-1.95,1.01-2.73,1.77-.77.76-1.37,1.65-1.8,2.67-.42,1.02-.64,2.13-.64,3.35s.21,2.31.64,3.33c.43,1.02,1.02,1.92,1.8,2.68s1.68,1.35,2.73,1.77,2.17.62,3.39.62Z"/>
        <path class="cls-2" d="M224.76,51.49c-1.51,0-2.95-.25-4.34-.74-1.38-.49-2.45-1.13-3.2-1.9l.84-1.65c.71.7,1.68,1.28,2.89,1.75,1.21.47,2.48.71,3.81.71s2.31-.16,3.12-.48c.8-.32,1.39-.75,1.77-1.29.38-.54.57-1.14.57-1.8,0-.79-.23-1.43-.68-1.91-.46-.48-1.05-.87-1.78-1.15-.73-.28-1.55-.53-2.44-.74-.89-.21-1.78-.44-2.67-.68-.89-.24-1.71-.57-2.45-.97-.75-.41-1.34-.94-1.8-1.61-.45-.67-.68-1.54-.68-2.62,0-1.01.26-1.93.8-2.77.53-.84,1.35-1.52,2.45-2.03,1.1-.51,2.51-.77,4.23-.77,1.14,0,2.27.16,3.39.48,1.12.32,2.09.76,2.9,1.32l-.72,1.71c-.87-.58-1.79-1.01-2.77-1.28-.98-.27-1.92-.41-2.83-.41-1.22,0-2.22.16-3.02.49s-1.38.77-1.75,1.32c-.38.55-.57,1.17-.57,1.87,0,.79.23,1.43.68,1.91s1.05.86,1.8,1.13c.74.27,1.56.51,2.45.73.89.21,1.77.44,2.65.7.88.25,1.69.58,2.44.97.74.4,1.34.92,1.8,1.58s.68,1.52.68,2.58c0,.99-.27,1.9-.81,2.74-.54.84-1.37,1.52-2.48,2.03-1.11.51-2.54.77-4.28.77Z"/>
        <path class="cls-1" d="M106.99,82.32l9.28-20.3h2.12l9.28,20.3h-2.26l-8.53-19.05h.87l-8.53,19.05h-2.23ZM110.64,76.89l.64-1.74h11.8l.64,1.74h-13.08Z"/>
        <path class="cls-1" d="M131.03,82.32v-20.3h8.27c2.17,0,4.06.43,5.7,1.29s2.9,2.05,3.81,3.58c.91,1.53,1.36,3.29,1.36,5.28s-.46,3.75-1.36,5.28c-.91,1.53-2.18,2.72-3.81,3.58-1.63.86-3.53,1.29-5.7,1.29h-8.27ZM133.17,80.46h6c1.8,0,3.36-.35,4.68-1.06,1.32-.71,2.35-1.68,3.09-2.93.74-1.25,1.1-2.68,1.1-4.31s-.37-3.08-1.1-4.32c-.73-1.24-1.76-2.21-3.09-2.91-1.32-.71-2.89-1.06-4.68-1.06h-6v16.59Z"/>
        <path class="cls-1" d="M160.75,82.32l-8.99-20.3h2.32l8.41,19.11h-1.28l8.47-19.11h2.17l-8.99,20.3h-2.12Z"/>
        <path class="cls-1" d="M184.1,82.49c-1.53,0-2.94-.26-4.25-.77-1.3-.51-2.44-1.24-3.39-2.17-.96-.94-1.7-2.03-2.23-3.28-.53-1.25-.8-2.61-.8-4.1s.27-2.86.8-4.1c.53-1.25,1.28-2.34,2.23-3.28s2.08-1.66,3.38-2.18c1.29-.51,2.72-.77,4.26-.77s2.94.26,4.23.77c1.29.51,2.42,1.23,3.38,2.16.96.93,1.7,2.02,2.23,3.28.53,1.26.8,2.63.8,4.12s-.27,2.86-.8,4.12c-.53,1.26-1.28,2.35-2.23,3.28-.96.93-2.08,1.65-3.38,2.16-1.3.51-2.71.77-4.23.77ZM184.1,80.58c1.22,0,2.34-.21,3.38-.62s1.93-1.01,2.7-1.77c.76-.76,1.36-1.65,1.78-2.67.42-1.02.64-2.13.64-3.35s-.21-2.33-.64-3.35c-.43-1.02-1.02-1.9-1.78-2.67-.76-.76-1.66-1.35-2.7-1.77-1.03-.42-2.16-.62-3.38-.62s-2.35.21-3.39.62c-1.04.42-1.95,1.01-2.73,1.77-.77.76-1.37,1.65-1.8,2.67-.42,1.02-.64,2.13-.64,3.35s.21,2.31.64,3.33c.43,1.02,1.02,1.92,1.8,2.68s1.68,1.35,2.73,1.77,2.17.62,3.39.62Z"/>
        <path class="cls-1" d="M208.46,82.49c-1.55,0-2.97-.26-4.28-.77-1.3-.51-2.44-1.23-3.39-2.16-.96-.93-1.7-2.02-2.23-3.28-.53-1.26-.8-2.63-.8-4.12s.27-2.86.8-4.12c.53-1.26,1.28-2.35,2.25-3.28.97-.93,2.1-1.65,3.41-2.16,1.3-.51,2.73-.77,4.28-.77s2.96.24,4.25.73c1.29.48,2.38,1.22,3.29,2.2l-1.33,1.36c-.85-.85-1.79-1.46-2.81-1.83s-2.13-.55-3.31-.55c-1.26,0-2.41.21-3.47.62-1.05.42-1.97,1.01-2.75,1.77-.78.76-1.39,1.65-1.83,2.67-.43,1.02-.65,2.13-.65,3.35s.22,2.31.65,3.33c.44,1.02,1.04,1.92,1.83,2.68s1.7,1.35,2.75,1.77,2.2.62,3.44.62c1.16,0,2.26-.17,3.29-.52,1.03-.35,1.99-.94,2.86-1.77l1.22,1.62c-.97.85-2.1,1.49-3.39,1.93-1.29.44-2.65.65-4.06.65ZM213.85,79.65v-7.48h2.06v7.74l-2.06-.26Z"/>
        <path class="cls-1" d="M218.72,82.32l9.28-20.3h2.12l9.28,20.3h-2.26l-8.53-19.05h.87l-8.53,19.05h-2.23ZM222.38,76.89l.64-1.74h11.8l.64,1.74h-13.08Z"/>
        <path class="cls-1" d="M242.76,82.32v-20.3h8.27c2.17,0,4.06.43,5.7,1.29s2.9,2.05,3.81,3.58c.91,1.53,1.36,3.29,1.36,5.28s-.46,3.75-1.36,5.28c-.91,1.53-2.18,2.72-3.81,3.58-1.63.86-3.53,1.29-5.7,1.29h-8.27ZM244.91,80.46h6c1.8,0,3.36-.35,4.68-1.06,1.32-.71,2.35-1.68,3.09-2.93.74-1.25,1.1-2.68,1.1-4.31s-.37-3.08-1.1-4.32c-.73-1.24-1.76-2.21-3.09-2.91-1.32-.71-2.89-1.06-4.68-1.06h-6v16.59Z"/>
        <path class="cls-1" d="M275.59,82.49c-1.53,0-2.94-.26-4.25-.77-1.3-.51-2.44-1.24-3.39-2.17-.96-.94-1.7-2.03-2.23-3.28-.53-1.25-.8-2.61-.8-4.1s.27-2.86.8-4.1c.53-1.25,1.28-2.34,2.23-3.28s2.08-1.66,3.38-2.18c1.29-.51,2.72-.77,4.26-.77s2.94.26,4.23.77c1.29.51,2.42,1.23,3.38,2.16.96.93,1.7,2.02,2.23,3.28.53,1.26.8,2.63.8,4.12s-.27,2.86-.8,4.12c-.53,1.26-1.28,2.35-2.23,3.28-.96.93-2.08,1.65-3.38,2.16-1.3.51-2.71.77-4.23.77ZM275.59,80.58c1.22,0,2.34-.21,3.38-.62s1.93-1.01,2.7-1.77c.76-.76,1.36-1.65,1.78-2.67.42-1.02.64-2.13.64-3.35s-.21-2.33-.64-3.35c-.43-1.02-1.02-1.9-1.78-2.67-.76-.76-1.66-1.35-2.7-1.77-1.03-.42-2.16-.62-3.38-.62s-2.35.21-3.39.62c-1.04.42-1.95,1.01-2.73,1.77-.77.76-1.37,1.65-1.8,2.67-.42,1.02-.64,2.13-.64,3.35s.21,2.31.64,3.33c.43,1.02,1.02,1.92,1.8,2.68s1.68,1.35,2.73,1.77,2.17.62,3.39.62Z"/>
        <path class="cls-1" d="M296.65,82.49c-1.51,0-2.95-.25-4.34-.74-1.38-.49-2.45-1.13-3.2-1.9l.84-1.65c.71.7,1.68,1.28,2.89,1.75,1.21.47,2.48.71,3.81.71s2.31-.16,3.12-.48c.8-.32,1.39-.75,1.77-1.29.38-.54.57-1.14.57-1.8,0-.79-.23-1.43-.68-1.91-.46-.48-1.05-.87-1.78-1.15-.73-.28-1.55-.53-2.44-.74-.89-.21-1.78-.44-2.67-.68-.89-.24-1.71-.57-2.45-.97-.75-.41-1.34-.94-1.8-1.61-.45-.67-.68-1.54-.68-2.62,0-1.01.26-1.93.8-2.77.53-.84,1.35-1.52,2.45-2.03,1.1-.51,2.51-.77,4.23-.77,1.14,0,2.27.16,3.39.48,1.12.32,2.09.76,2.9,1.32l-.72,1.71c-.87-.58-1.79-1.01-2.77-1.28-.98-.27-1.92-.41-2.83-.41-1.22,0-2.22.16-3.02.49s-1.38.77-1.75,1.32c-.38.55-.57,1.17-.57,1.87,0,.79.23,1.43.68,1.91s1.05.86,1.8,1.13c.74.27,1.56.51,2.45.73.89.21,1.77.44,2.65.7.88.25,1.69.58,2.44.97.74.4,1.34.92,1.8,1.58s.68,1.52.68,2.58c0,.99-.27,1.9-.81,2.74-.54.84-1.37,1.52-2.48,2.03-1.11.51-2.54.77-4.28.77Z"/>
      </g>
    </g>
  </g>
</svg>